<svg height="480pt" viewBox="0 0 480.00084 480" width="480pt" xmlns="http://www.w3.org/2000/svg"><path d="m200 239.96875c.011719-11.535156-8.1875-21.445312-19.519531-23.597656-1.480469-.257813-2.976563-.390625-4.480469-.402344-13.253906 0-24 10.746094-24 24s10.746094 24 24 24c1.503906-.007812 3-.144531 4.480469-.398438 11.332031-2.152343 19.53125-12.066406 19.519531-23.601562zm0 0" fill="#ff5023"/><path d="m240 7.96875c-45.847656-.085938-90.6875 13.476562-128.800781 38.960938 13.078125 16.191406 11.550781 39.703124-3.503907 54.070312-15.054687 14.367188-38.613281 14.789062-54.175781.96875-71.484375 96.554688-57.386719 231.714844 32.480469 311.441406 10.210938-13.574218 29.242188-16.808594 43.363281-7.367187 14.117188 9.441406 18.402344 28.265625 9.757813 42.886719 85.949218 41.457031 188.515625 26.0625 258.5-38.804688 69.988281-64.867188 93.117187-165.972656 58.296875-254.816406-34.820313-88.84375-120.492188-147.304688-215.917969-147.339844zm144 312c0 9.257812-5.320312 17.6875-13.675781 21.667969s-18.253907 2.804687-25.445313-3.027344c-51.414062 54.792969-136.25 61.019531-195.117187 14.324219-58.871094-46.695313-72.113281-130.71875-30.464844-193.257813 41.652344-62.539062 124.289063-82.707031 190.066406-46.390625 65.78125 36.320313 92.734375 117 61.996094 185.566406 7.804687 4.152344 12.667969 12.28125 12.640625 21.117188zm0 0" fill="#f1f2f2"/><path d="m240 95.96875c-65.726562-.011719-123.125 44.484375-139.492188 108.140625-16.367187 63.660156 12.445313 130.320313 70.027344 162.015625 57.585938 31.691406 129.320313 20.371094 174.34375-27.515625-9.558594-7.816406-11.628906-21.609375-4.785156-31.882813 6.847656-10.277343 20.371094-13.683593 31.265625-7.875 8.371094-18.5 12.679687-38.578124 12.640625-58.882812 0-79.527344-64.46875-144-144-144zm0 208c-26.25.027344-49.851562-15.992188-59.519531-40.398438-1.480469.253907-2.976563.390626-4.480469.398438-13.253906 0-24-10.746094-24-24s10.746094-24 24-24c1.503906.011719 3 .144531 4.480469.402344 11.886719-29.964844 44.203125-46.410156 75.425781-38.386719 31.21875 8.027344 51.597656 38.019531 47.558594 70-4.035156 31.984375-31.230469 55.96875-63.464844 55.984375zm0 0" fill="#f1f2f2"/><path d="m240 175.96875c-26.25-.023438-49.851562 15.996094-59.519531 40.402344 11.378906 2.101562 19.636719 12.027344 19.636719 23.597656 0 11.574219-8.257813 21.496094-19.636719 23.601562 11.886719 29.964844 44.203125 46.410157 75.425781 38.382813 31.21875-8.023437 51.597656-38.015625 47.558594-70-4.035156-31.980469-31.230469-55.96875-63.464844-55.984375zm0 0" fill="#f1f2f2"/><path d="m336 319.96875c0 13.253906 10.746094 24 24 24s24-10.746094 24-24-10.746094-24-24-24c-6.375-.027344-12.496094 2.488281-17.003906 6.996094-4.507813 4.507812-7.023438 10.628906-6.996094 17.003906zm0 0" fill="#2488ff"/><path d="m120 71.96875c0-22.089844-17.90625-40-40-40-22.089844 0-40 17.910156-40 40 0 22.09375 17.910156 40 40 40 10.617188.027344 20.808594-4.175781 28.316406-11.683594 7.507813-7.507812 11.710938-17.699218 11.683594-28.316406zm0 0" fill="#ff9811"/><path d="m448 431.96875c0 8.835938-7.164062 16-16 16s-16-7.164062-16-16 7.164062-16 16-16 16 7.164062 16 16zm0 0" fill="#ffcd00"/><path d="m112 399.96875c-17.671875 0-32 14.328125-32 32 0 17.675781 14.328125 32 32 32 17.675781 0 32-14.324219 32-32 .066406-8.507812-3.28125-16.683594-9.296875-22.699219s-14.195313-9.367187-22.703125-9.300781zm0 0" fill="#5eac24"/><path d="m456 39.96875c0 8.835938-7.164062 16-16 16s-16-7.164062-16-16 7.164062-16 16-16 16 7.164062 16 16zm0 0" fill="#ffcd00"/><g fill="#231f20"><path d="m240 311.96875c35.535156.085938 65.816406-25.769531 71.304688-60.875 5.492187-35.109375-15.453126-68.972656-49.320313-79.738281-33.863281-10.769531-70.519531 4.78125-86.3125 36.613281-17.097656.765625-30.566406 14.851562-30.566406 31.96875s13.46875 31.203125 30.566406 31.96875c12.003906 24.570312 36.984375 40.128906 64.328125 40.0625zm0-128c27.164062.027344 50.394531 19.539062 55.101562 46.292969 4.710938 26.75-10.457031 53.023437-35.980468 62.324219-25.519532 9.300781-54.035156-1.058594-67.640625-24.566407.175781-.097656.328125-.226562.503906-.328125.433594-.25.800781-.539062 1.25-.800781.996094-.644531 1.960937-1.335937 2.886719-2.082031.421875-.34375.847656-.695313 1.253906-1.0625.914062-.832032 1.777344-1.714844 2.59375-2.640625.28125-.320313.574219-.609375.847656-.9375 1.027344-1.261719 1.960938-2.597657 2.792969-4 .183594-.308594.320313-.644531.496094-.964844.617187-1.144531 1.167969-2.320313 1.648437-3.53125.199219-.511719.367188-1.023437.542969-1.542969.371094-1.136718.683594-2.292968.9375-3.464844.101563-.511718.230469-1.007812.308594-1.527343.609375-3.398438.609375-6.878907 0-10.277344-.078125-.503906-.207031-1-.308594-1.503906-.253906-1.1875-.570313-2.355469-.945313-3.503907-.167968-.503906-.335937-1-.527343-1.496093-.503907-1.277344-1.085938-2.519531-1.746094-3.722657-.136719-.246093-.238281-.511718-.382813-.757812-.855468-1.460938-1.820312-2.847656-2.894531-4.152344-.175781-.21875-.371093-.402344-.554687-.609375-.925782-1.085937-1.933594-2.105469-3.007813-3.046875l-.871093-.753906c-1.109376-.921875-2.28125-1.773438-3.503907-2.542969-.214843-.136719-.414062-.28125-.640625-.40625-.222656-.128906-.414062-.289062-.640625-.417969 9.953125-17.367187 28.464844-28.050781 48.480469-27.976562zm-80 56c0-8.835938 7.164062-16 16-16 1.007812.007812 2.015625.097656 3.007812.265625 7.566407 1.402344 13.0625 7.996094 13.082032 15.691406.019531 7.695313-5.441406 14.3125-13 15.757813-1.019532.179687-2.054688.277344-3.089844.285156-8.835938 0-16-7.164062-16-16zm0 0"/><path d="m345.96875 348.632812c4.359375 2.179688 9.160156 3.320313 14.03125 3.335938 13.320312.015625 25.25-8.234375 29.9375-20.699219 4.691406-12.464843 1.160156-26.53125-8.863281-35.300781 7.199219-17.792969 10.90625-36.804688 10.925781-56 .253906-72.640625-50.753906-135.382812-121.914062-149.964844-71.164063-14.582031-142.738282 23.042969-171.074219 89.933594-28.335938 66.886719-5.570313 144.476562 54.414062 185.453125 59.984375 40.972656 140.539063 33.964844 192.542969-16.757813zm14.03125-12.664062c-8.835938 0-16-7.164062-16-16s7.164062-16 16-16c2.65625-.003906 5.273438.667969 7.601562 1.945312 6.421876 3.492188 9.660157 10.890626 7.867188 17.976563-1.792969 7.089844-8.160156 12.058594-15.46875 12.078125zm-256-96c0-75.109375 60.890625-136 136-136 75.113281 0 136 60.890625 136 136 .046875 16.691406-3.023438 33.238281-9.054688 48.800781-.191406 0-.402343 0-.59375-.0625-9.40625-2.007812-19.214843.363281-26.667968 6.4375-7.453125 6.078125-11.75 15.207031-11.683594 24.824219.023438 2.132812.261719 4.257812.703125 6.34375.113281.554688.25 1.089844.386719 1.601562.445312 1.765626 1.042968 3.488282 1.78125 5.152344.128906.269532.210937.558594.335937.800782.753907 1.558593 1.625 3.058593 2.617188 4.480468-25.191407 24.265625-58.847657 37.761719-93.824219 37.621094-75.074219-.082031-135.914062-60.921875-136-136zm0 0"/><path d="m480 239.96875c.035156-87.320312-47.382812-167.761719-123.800781-210.015625s-169.757813-39.640625-243.695313 6.816406c-18.582031-17.085937-47.234375-16.824219-65.503906.597657-18.269531 17.421874-19.890625 46.03125-3.703125 65.402343-68.394531 97.65625-54.484375 230.757813 32.625 312.160157-2.566406 5.316406-3.90625 11.136718-3.921875 17.039062-.035156 16.535156 10.128906 31.378906 25.550781 37.328125 15.425781 5.949219 32.921875 1.777344 44.003907-10.496094 30.921874 14.023438 64.492187 21.242188 98.445312 21.167969 132.488281-.148438 239.851562-107.511719 240-240zm-400-200c14.234375.007812 26.75 9.417969 30.714844 23.085938 3.964844 13.671874-1.574219 28.316406-13.59375 35.9375-12.019532 7.625-27.628906 6.390624-38.304688-3.023438-9.984375-8.804688-13.472656-22.871094-8.761718-35.320312 4.707031-12.453126 16.632812-20.6875 29.945312-20.679688zm8 392c0-13.253906 10.746094-24 24-24s24 10.746094 24 24c0 1.128906-.078125 2.257812-.230469 3.378906-.457031 3.316406-1.625 6.5-3.425781 9.324219-5.675781 9.070313-16.667969 13.289063-26.953125 10.339844-10.285156-2.945313-17.378906-12.34375-17.390625-23.042969zm62.03125 12.183594c.417969-1.332032.761719-2.683594 1.035156-4.054688.132813-.648437.320313-1.289062.414063-1.945312 2.132812-12.695313-2.035157-25.636719-11.179688-34.707032-9.140625-9.066406-22.117187-13.128906-34.796875-10.890624-.511718.085937-1.023437.175781-1.535156.277343-2.085938.414063-4.132812.992188-6.128906 1.730469-.160156.054688-.296875.144531-.453125.199219-1.851563.746093-3.648438 1.625-5.371094 2.632812-.421875.246094-.855469.496094-1.269531.757813-1.804688 1.121094-3.515625 2.386718-5.113282 3.785156l-.160156.113281c-79.605468-75.84375-92.371094-198.261719-30.128906-288.898437 2.226562 1.300781 4.550781 2.421875 6.953125 3.351562.710937.28125 1.433594.515625 2.152344.761719 1.8125.617187 3.65625 1.128906 5.527343 1.535156.753907.160157 1.488282.335938 2.25.464844 13.914063 2.425781 28.1875-1.457031 38.957032-10.589844 10.773437-9.136719 16.933594-22.582031 16.816406-36.707031-.019531-2.425781-.226562-4.851562-.625-7.246094-.101562-.6875-.246094-1.359375-.382812-2.050781-.363282-1.828125-.828126-3.632813-1.398438-5.40625-.191406-.582031-.351562-1.183594-.5625-1.761719-.757812-2.128906-1.671875-4.203125-2.726562-6.207031 80.816406-49.828125 184.269531-43.292969 258.175781 16.308594 73.90625 59.601562 102.207031 159.320312 70.632812 248.859375-31.574219 89.539062-116.167969 149.445312-211.113281 149.503906-31.058594.101562-61.792969-6.339844-90.199219-18.902344.097657-.296875.136719-.617187.230469-.914062zm0 0"/><path d="m432 407.96875c-13.253906 0-24 10.746094-24 24s10.746094 24 24 24 24-10.746094 24-24-10.746094-24-24-24zm0 32c-4.417969 0-8-3.582031-8-8s3.582031-8 8-8 8 3.582031 8 8-3.582031 8-8 8zm0 0"/><path d="m24 39.96875c2.117188-.03125 4.148438-.859375 5.679688-2.320312l.960937-1.199219c.304687-.445313.546875-.929688.71875-1.4375.234375-.457031.394531-.941407.480469-1.441407.089844-.53125.144531-1.0625.160156-1.601562-.03125-2.117188-.859375-4.144531-2.320312-5.679688-2.316407-2.234374-5.734376-2.894531-8.71875-1.679687-.96875.40625-1.863282.972656-2.640626 1.679687-.707031.777344-1.273437 1.671876-1.679687 2.640626-.410156.960937-.628906 1.996093-.640625 3.039062.015625 2.121094.847656 4.15625 2.320312 5.679688 1.535157 1.460937 3.5625 2.289062 5.679688 2.320312zm0 0"/><path d="m131.039062 232.609375c-2.976562-1.253906-6.417968-.589844-8.71875 1.679687-2.308593 2.289063-3 5.746094-1.753906 8.75 1.246094 3 4.183594 4.949219 7.433594 4.929688 1.046875-.011719 2.078125-.230469 3.039062-.640625.972657-.402344 1.863282-.972656 2.640626-1.679687.320312-.398438.640624-.796876.960937-1.277344.316406-.410156.5625-.871094.71875-1.359375.234375-.457031.394531-.941407.480469-1.441407.09375-.527343.148437-1.0625.160156-1.601562-.03125-2.117188-.859375-4.144531-2.320312-5.679688-.777344-.707031-1.667969-1.273437-2.640626-1.679687zm0 0"/><path d="m71.359375 460.929688c-.171875-.511719-.414063-.992188-.71875-1.441407l-.960937-1.199219c-.777344-.707031-1.667969-1.273437-2.640626-1.679687-1.929687-.878906-4.148437-.878906-6.078124 0-3.046876 1.152344-5.035157 4.101563-4.960938 7.359375.011719 1.046875.230469 2.078125.640625 3.042969.367187.988281.941406 1.886719 1.679687 2.636719.777344.707031 1.671876 1.277343 2.640626 1.679687.960937.410156 1.996093.628906 3.039062.640625 2.117188-.03125 4.148438-.859375 5.679688-2.320312.742187-.75 1.3125-1.648438 1.679687-2.636719.410156-.964844.628906-1.996094.640625-3.042969-.011719-.535156-.066406-1.070312-.160156-1.597656-.085938-.503906-.246094-.988282-.480469-1.441406zm0 0"/><path d="m467.039062 448.609375c-1.457031-.640625-3.078124-.808594-4.636718-.480469-.503906.089844-.988282.25-1.441406.480469-.511719.175781-.996094.417969-1.441407.71875-.417969.296875-.820312.617187-1.199219.960937-3.09375 3.15625-3.09375 8.207032 0 11.359376l1.199219.960937c.445313.304687.929688.546875 1.441407.71875.453124.234375.9375.394531 1.441406.480469.527344.09375 1.0625.148437 1.597656.160156 1.046875-.011719 2.078125-.230469 3.039062-.640625.980469-.386719 1.875-.957031 2.640626-1.679687.320312-.398438.640624-.796876.960937-1.277344.316406-.410156.5625-.871094.71875-1.359375.234375-.457031.394531-.941407.480469-1.441407.089844-.53125.144531-1.0625.160156-1.601562-.03125-2.117188-.859375-4.144531-2.320312-5.679688-.765626-.722656-1.660157-1.292968-2.640626-1.679687zm0 0"/><path d="m388.960938 344.609375c-.96875.40625-1.863282.972656-2.640626 1.679687-3.09375 3.15625-3.09375 8.207032 0 11.359376.777344.707031 1.671876 1.277343 2.640626 1.679687.949218.449219 1.992187.667969 3.039062.640625 3.25.019531 6.191406-1.929688 7.4375-4.929688 1.246094-3.003906.550781-6.460937-1.757812-8.75-.765626-.722656-1.660157-1.292968-2.640626-1.679687-1.945312-.800781-4.128906-.800781-6.078124 0zm0 0"/><path d="m440 63.96875c13.253906 0 24-10.746094 24-24s-10.746094-24-24-24-24 10.746094-24 24 10.746094 24 24 24zm0-32c4.417969 0 8 3.582031 8 8s-3.582031 8-8 8-8-3.582031-8-8 3.582031-8 8-8zm0 0"/></g></svg>